<mxfile host="app.diagrams.net" modified="2021-02-11T17:12:18.145Z" agent="5.0 (Windows NT 10.0; Win64; x64) AppleWebKit/537.36 (KHTML, like Gecko) Chrome/88.0.4324.150 Safari/537.36" etag="eCPb0XaYVRwz_JlCIn9j" version="14.3.0" type="github">
  <diagram id="troUd4ilfkSZWsJbCWqC" name="Page-1">
    <mxGraphModel dx="1826" dy="2060" grid="1" gridSize="10" guides="1" tooltips="1" connect="1" arrows="1" fold="1" page="1" pageScale="1" pageWidth="827" pageHeight="1169" background="none" math="0" shadow="0">
      <root>
        <mxCell id="0" />
        <mxCell id="1" parent="0" />
        <mxCell id="ob_97SbMXPfb_6fFZYyK-5" value="Wizarding School" style="shape=table;startSize=30;container=1;collapsible=1;childLayout=tableLayout;fixedRows=1;rowLines=0;fontStyle=1;align=center;resizeLast=1;fillColor=#ffe6cc;strokeColor=#d79b00;rounded=1;" parent="1" vertex="1">
          <mxGeometry x="120" y="-150" width="180" height="190" as="geometry" />
        </mxCell>
        <mxCell id="ob_97SbMXPfb_6fFZYyK-6" value="" style="shape=partialRectangle;collapsible=0;dropTarget=0;pointerEvents=0;fillColor=none;top=0;left=0;bottom=1;right=0;points=[[0,0.5],[1,0.5]];portConstraint=eastwest;rounded=1;" parent="ob_97SbMXPfb_6fFZYyK-5" vertex="1">
          <mxGeometry y="30" width="180" height="30" as="geometry" />
        </mxCell>
        <mxCell id="ob_97SbMXPfb_6fFZYyK-7" value="PK" style="shape=partialRectangle;connectable=0;fillColor=none;top=0;left=0;bottom=0;right=0;fontStyle=1;overflow=hidden;rounded=1;" parent="ob_97SbMXPfb_6fFZYyK-6" vertex="1">
          <mxGeometry width="30" height="30" as="geometry" />
        </mxCell>
        <mxCell id="ob_97SbMXPfb_6fFZYyK-8" value="School ID" style="shape=partialRectangle;connectable=0;fillColor=none;top=0;left=0;bottom=0;right=0;align=left;spacingLeft=6;fontStyle=5;overflow=hidden;rounded=1;" parent="ob_97SbMXPfb_6fFZYyK-6" vertex="1">
          <mxGeometry x="30" width="150" height="30" as="geometry" />
        </mxCell>
        <mxCell id="ob_97SbMXPfb_6fFZYyK-9" value="" style="shape=partialRectangle;collapsible=0;dropTarget=0;pointerEvents=0;fillColor=none;top=0;left=0;bottom=0;right=0;points=[[0,0.5],[1,0.5]];portConstraint=eastwest;rounded=1;" parent="ob_97SbMXPfb_6fFZYyK-5" vertex="1">
          <mxGeometry y="60" width="180" height="30" as="geometry" />
        </mxCell>
        <mxCell id="ob_97SbMXPfb_6fFZYyK-10" value="" style="shape=partialRectangle;connectable=0;fillColor=none;top=0;left=0;bottom=0;right=0;editable=1;overflow=hidden;rounded=1;" parent="ob_97SbMXPfb_6fFZYyK-9" vertex="1">
          <mxGeometry width="30" height="30" as="geometry" />
        </mxCell>
        <mxCell id="ob_97SbMXPfb_6fFZYyK-11" value="Name" style="shape=partialRectangle;connectable=0;fillColor=none;top=0;left=0;bottom=0;right=0;align=left;spacingLeft=6;overflow=hidden;rounded=1;" parent="ob_97SbMXPfb_6fFZYyK-9" vertex="1">
          <mxGeometry x="30" width="150" height="30" as="geometry" />
        </mxCell>
        <mxCell id="5d3oSk-wsn04Um7uAE1o-46" value="" style="shape=partialRectangle;collapsible=0;dropTarget=0;pointerEvents=0;fillColor=none;top=0;left=0;bottom=0;right=0;points=[[0,0.5],[1,0.5]];portConstraint=eastwest;rounded=1;" vertex="1" parent="ob_97SbMXPfb_6fFZYyK-5">
          <mxGeometry y="90" width="180" height="30" as="geometry" />
        </mxCell>
        <mxCell id="5d3oSk-wsn04Um7uAE1o-47" value="" style="shape=partialRectangle;connectable=0;fillColor=none;top=0;left=0;bottom=0;right=0;editable=1;overflow=hidden;" vertex="1" parent="5d3oSk-wsn04Um7uAE1o-46">
          <mxGeometry width="30" height="30" as="geometry" />
        </mxCell>
        <mxCell id="5d3oSk-wsn04Um7uAE1o-48" value="Deputy Head" style="shape=partialRectangle;connectable=0;fillColor=none;top=0;left=0;bottom=0;right=0;align=left;spacingLeft=6;overflow=hidden;" vertex="1" parent="5d3oSk-wsn04Um7uAE1o-46">
          <mxGeometry x="30" width="150" height="30" as="geometry" />
        </mxCell>
        <mxCell id="5d3oSk-wsn04Um7uAE1o-43" value="" style="shape=partialRectangle;collapsible=0;dropTarget=0;pointerEvents=0;fillColor=none;top=0;left=0;bottom=0;right=0;points=[[0,0.5],[1,0.5]];portConstraint=eastwest;rounded=1;" vertex="1" parent="ob_97SbMXPfb_6fFZYyK-5">
          <mxGeometry y="120" width="180" height="30" as="geometry" />
        </mxCell>
        <mxCell id="5d3oSk-wsn04Um7uAE1o-44" value="" style="shape=partialRectangle;connectable=0;fillColor=none;top=0;left=0;bottom=0;right=0;editable=1;overflow=hidden;" vertex="1" parent="5d3oSk-wsn04Um7uAE1o-43">
          <mxGeometry width="30" height="30" as="geometry" />
        </mxCell>
        <mxCell id="5d3oSk-wsn04Um7uAE1o-45" value="Current Head" style="shape=partialRectangle;connectable=0;fillColor=none;top=0;left=0;bottom=0;right=0;align=left;spacingLeft=6;overflow=hidden;" vertex="1" parent="5d3oSk-wsn04Um7uAE1o-43">
          <mxGeometry x="30" width="150" height="30" as="geometry" />
        </mxCell>
        <mxCell id="ob_97SbMXPfb_6fFZYyK-12" value="" style="shape=partialRectangle;collapsible=0;dropTarget=0;pointerEvents=0;fillColor=none;top=0;left=0;bottom=0;right=0;points=[[0,0.5],[1,0.5]];portConstraint=eastwest;rounded=1;" parent="ob_97SbMXPfb_6fFZYyK-5" vertex="1">
          <mxGeometry y="150" width="180" height="30" as="geometry" />
        </mxCell>
        <mxCell id="ob_97SbMXPfb_6fFZYyK-13" value="" style="shape=partialRectangle;connectable=0;fillColor=none;top=0;left=0;bottom=0;right=0;editable=1;overflow=hidden;rounded=1;" parent="ob_97SbMXPfb_6fFZYyK-12" vertex="1">
          <mxGeometry width="30" height="30" as="geometry" />
        </mxCell>
        <mxCell id="ob_97SbMXPfb_6fFZYyK-14" value="Region" style="shape=partialRectangle;connectable=0;fillColor=none;top=0;left=0;bottom=0;right=0;align=left;spacingLeft=6;overflow=hidden;rounded=1;" parent="ob_97SbMXPfb_6fFZYyK-12" vertex="1">
          <mxGeometry x="30" width="150" height="30" as="geometry" />
        </mxCell>
        <mxCell id="ob_97SbMXPfb_6fFZYyK-18" value="Book" style="shape=table;startSize=30;container=1;collapsible=1;childLayout=tableLayout;fixedRows=1;rowLines=0;fontStyle=1;align=center;resizeLast=1;fillColor=#fff2cc;strokeColor=#d6b656;rounded=1;" parent="1" vertex="1">
          <mxGeometry x="324" y="30" width="180" height="160" as="geometry" />
        </mxCell>
        <mxCell id="ob_97SbMXPfb_6fFZYyK-19" value="" style="shape=partialRectangle;collapsible=0;dropTarget=0;pointerEvents=0;fillColor=none;top=0;left=0;bottom=1;right=0;points=[[0,0.5],[1,0.5]];portConstraint=eastwest;rounded=1;" parent="ob_97SbMXPfb_6fFZYyK-18" vertex="1">
          <mxGeometry y="30" width="180" height="30" as="geometry" />
        </mxCell>
        <mxCell id="ob_97SbMXPfb_6fFZYyK-20" value="PK" style="shape=partialRectangle;connectable=0;fillColor=none;top=0;left=0;bottom=0;right=0;fontStyle=1;overflow=hidden;rounded=1;" parent="ob_97SbMXPfb_6fFZYyK-19" vertex="1">
          <mxGeometry width="30" height="30" as="geometry" />
        </mxCell>
        <mxCell id="ob_97SbMXPfb_6fFZYyK-21" value="ISBN" style="shape=partialRectangle;connectable=0;fillColor=none;top=0;left=0;bottom=0;right=0;align=left;spacingLeft=6;fontStyle=5;overflow=hidden;rounded=1;" parent="ob_97SbMXPfb_6fFZYyK-19" vertex="1">
          <mxGeometry x="30" width="150" height="30" as="geometry" />
        </mxCell>
        <mxCell id="ob_97SbMXPfb_6fFZYyK-22" value="" style="shape=partialRectangle;collapsible=0;dropTarget=0;pointerEvents=0;fillColor=none;top=0;left=0;bottom=0;right=0;points=[[0,0.5],[1,0.5]];portConstraint=eastwest;rounded=1;" parent="ob_97SbMXPfb_6fFZYyK-18" vertex="1">
          <mxGeometry y="60" width="180" height="30" as="geometry" />
        </mxCell>
        <mxCell id="ob_97SbMXPfb_6fFZYyK-23" value="" style="shape=partialRectangle;connectable=0;fillColor=none;top=0;left=0;bottom=0;right=0;editable=1;overflow=hidden;rounded=1;" parent="ob_97SbMXPfb_6fFZYyK-22" vertex="1">
          <mxGeometry width="30" height="30" as="geometry" />
        </mxCell>
        <mxCell id="ob_97SbMXPfb_6fFZYyK-24" value="Author" style="shape=partialRectangle;connectable=0;fillColor=none;top=0;left=0;bottom=0;right=0;align=left;spacingLeft=6;overflow=hidden;rounded=1;" parent="ob_97SbMXPfb_6fFZYyK-22" vertex="1">
          <mxGeometry x="30" width="150" height="30" as="geometry" />
        </mxCell>
        <mxCell id="ob_97SbMXPfb_6fFZYyK-25" value="" style="shape=partialRectangle;collapsible=0;dropTarget=0;pointerEvents=0;fillColor=none;top=0;left=0;bottom=0;right=0;points=[[0,0.5],[1,0.5]];portConstraint=eastwest;rounded=1;" parent="ob_97SbMXPfb_6fFZYyK-18" vertex="1">
          <mxGeometry y="90" width="180" height="30" as="geometry" />
        </mxCell>
        <mxCell id="ob_97SbMXPfb_6fFZYyK-26" value="" style="shape=partialRectangle;connectable=0;fillColor=none;top=0;left=0;bottom=0;right=0;editable=1;overflow=hidden;rounded=1;" parent="ob_97SbMXPfb_6fFZYyK-25" vertex="1">
          <mxGeometry width="30" height="30" as="geometry" />
        </mxCell>
        <mxCell id="ob_97SbMXPfb_6fFZYyK-27" value="Published by" style="shape=partialRectangle;connectable=0;fillColor=none;top=0;left=0;bottom=0;right=0;align=left;spacingLeft=6;overflow=hidden;rounded=1;" parent="ob_97SbMXPfb_6fFZYyK-25" vertex="1">
          <mxGeometry x="30" width="150" height="30" as="geometry" />
        </mxCell>
        <mxCell id="ob_97SbMXPfb_6fFZYyK-28" value="" style="shape=partialRectangle;collapsible=0;dropTarget=0;pointerEvents=0;fillColor=none;top=0;left=0;bottom=0;right=0;points=[[0,0.5],[1,0.5]];portConstraint=eastwest;rounded=1;" parent="ob_97SbMXPfb_6fFZYyK-18" vertex="1">
          <mxGeometry y="120" width="180" height="30" as="geometry" />
        </mxCell>
        <mxCell id="ob_97SbMXPfb_6fFZYyK-29" value="" style="shape=partialRectangle;connectable=0;fillColor=none;top=0;left=0;bottom=0;right=0;editable=1;overflow=hidden;rounded=1;" parent="ob_97SbMXPfb_6fFZYyK-28" vertex="1">
          <mxGeometry width="30" height="30" as="geometry" />
        </mxCell>
        <mxCell id="ob_97SbMXPfb_6fFZYyK-30" value="Published Date" style="shape=partialRectangle;connectable=0;fillColor=none;top=0;left=0;bottom=0;right=0;align=left;spacingLeft=6;overflow=hidden;rounded=1;" parent="ob_97SbMXPfb_6fFZYyK-28" vertex="1">
          <mxGeometry x="30" width="150" height="30" as="geometry" />
        </mxCell>
        <mxCell id="ob_97SbMXPfb_6fFZYyK-31" value="Appearance" style="shape=table;startSize=30;container=1;collapsible=1;childLayout=tableLayout;fixedRows=1;rowLines=0;fontStyle=1;align=center;resizeLast=1;fillColor=#f0a30a;strokeColor=#BD7000;fontColor=#ffffff;rounded=1;" parent="1" vertex="1">
          <mxGeometry x="660" y="70" width="180" height="100" as="geometry" />
        </mxCell>
        <mxCell id="ob_97SbMXPfb_6fFZYyK-32" value="" style="shape=partialRectangle;collapsible=0;dropTarget=0;pointerEvents=0;fillColor=none;top=0;left=0;bottom=1;right=0;points=[[0,0.5],[1,0.5]];portConstraint=eastwest;rounded=1;" parent="ob_97SbMXPfb_6fFZYyK-31" vertex="1">
          <mxGeometry y="30" width="180" height="30" as="geometry" />
        </mxCell>
        <mxCell id="ob_97SbMXPfb_6fFZYyK-33" value="FK" style="shape=partialRectangle;connectable=0;fillColor=none;top=0;left=0;bottom=0;right=0;fontStyle=1;overflow=hidden;rounded=1;" parent="ob_97SbMXPfb_6fFZYyK-32" vertex="1">
          <mxGeometry width="30" height="30" as="geometry" />
        </mxCell>
        <mxCell id="ob_97SbMXPfb_6fFZYyK-34" value="ISBN" style="shape=partialRectangle;connectable=0;fillColor=none;top=0;left=0;bottom=0;right=0;align=left;spacingLeft=6;fontStyle=5;overflow=hidden;rounded=1;" parent="ob_97SbMXPfb_6fFZYyK-32" vertex="1">
          <mxGeometry x="30" width="150" height="30" as="geometry" />
        </mxCell>
        <mxCell id="ob_97SbMXPfb_6fFZYyK-35" value="" style="shape=partialRectangle;collapsible=0;dropTarget=0;pointerEvents=0;fillColor=none;top=0;left=0;bottom=0;right=0;points=[[0,0.5],[1,0.5]];portConstraint=eastwest;rounded=1;" parent="ob_97SbMXPfb_6fFZYyK-31" vertex="1">
          <mxGeometry y="60" width="180" height="30" as="geometry" />
        </mxCell>
        <mxCell id="ob_97SbMXPfb_6fFZYyK-36" value="FK" style="shape=partialRectangle;connectable=0;fillColor=none;top=0;left=0;bottom=0;right=0;editable=1;overflow=hidden;rounded=1;" parent="ob_97SbMXPfb_6fFZYyK-35" vertex="1">
          <mxGeometry width="30" height="30" as="geometry" />
        </mxCell>
        <mxCell id="ob_97SbMXPfb_6fFZYyK-37" value="Character ID" style="shape=partialRectangle;connectable=0;fillColor=none;top=0;left=0;bottom=0;right=0;align=left;spacingLeft=6;overflow=hidden;rounded=1;" parent="ob_97SbMXPfb_6fFZYyK-35" vertex="1">
          <mxGeometry x="30" width="150" height="30" as="geometry" />
        </mxCell>
        <mxCell id="ob_97SbMXPfb_6fFZYyK-44" value="Characters" style="shape=table;startSize=30;container=1;collapsible=1;childLayout=tableLayout;fixedRows=1;rowLines=0;fontStyle=1;align=center;resizeLast=1;fillColor=#fff2cc;strokeColor=#d6b656;rounded=1;" parent="1" vertex="1">
          <mxGeometry x="660" y="-100" width="180" height="100" as="geometry" />
        </mxCell>
        <mxCell id="ob_97SbMXPfb_6fFZYyK-45" value="" style="shape=partialRectangle;collapsible=0;dropTarget=0;pointerEvents=0;fillColor=none;top=0;left=0;bottom=1;right=0;points=[[0,0.5],[1,0.5]];portConstraint=eastwest;rounded=1;" parent="ob_97SbMXPfb_6fFZYyK-44" vertex="1">
          <mxGeometry y="30" width="180" height="30" as="geometry" />
        </mxCell>
        <mxCell id="ob_97SbMXPfb_6fFZYyK-46" value="PK" style="shape=partialRectangle;connectable=0;fillColor=none;top=0;left=0;bottom=0;right=0;fontStyle=1;overflow=hidden;rounded=1;" parent="ob_97SbMXPfb_6fFZYyK-45" vertex="1">
          <mxGeometry width="30" height="30" as="geometry" />
        </mxCell>
        <mxCell id="ob_97SbMXPfb_6fFZYyK-47" value="CharactersID" style="shape=partialRectangle;connectable=0;fillColor=none;top=0;left=0;bottom=0;right=0;align=left;spacingLeft=6;fontStyle=5;overflow=hidden;rounded=1;" parent="ob_97SbMXPfb_6fFZYyK-45" vertex="1">
          <mxGeometry x="30" width="150" height="30" as="geometry" />
        </mxCell>
        <mxCell id="ob_97SbMXPfb_6fFZYyK-48" value="" style="shape=partialRectangle;collapsible=0;dropTarget=0;pointerEvents=0;fillColor=none;top=0;left=0;bottom=0;right=0;points=[[0,0.5],[1,0.5]];portConstraint=eastwest;rounded=1;" parent="ob_97SbMXPfb_6fFZYyK-44" vertex="1">
          <mxGeometry y="60" width="180" height="30" as="geometry" />
        </mxCell>
        <mxCell id="ob_97SbMXPfb_6fFZYyK-49" value="" style="shape=partialRectangle;connectable=0;fillColor=none;top=0;left=0;bottom=0;right=0;editable=1;overflow=hidden;rounded=1;" parent="ob_97SbMXPfb_6fFZYyK-48" vertex="1">
          <mxGeometry width="30" height="30" as="geometry" />
        </mxCell>
        <mxCell id="ob_97SbMXPfb_6fFZYyK-50" value="Name" style="shape=partialRectangle;connectable=0;fillColor=none;top=0;left=0;bottom=0;right=0;align=left;spacingLeft=6;overflow=hidden;rounded=1;" parent="ob_97SbMXPfb_6fFZYyK-48" vertex="1">
          <mxGeometry x="30" width="150" height="30" as="geometry" />
        </mxCell>
        <mxCell id="ob_97SbMXPfb_6fFZYyK-57" value="Student" style="shape=table;startSize=30;container=1;collapsible=1;childLayout=tableLayout;fixedRows=1;rowLines=0;fontStyle=1;align=center;resizeLast=1;fillColor=#dae8fc;strokeColor=#6c8ebf;rounded=1;" parent="1" vertex="1">
          <mxGeometry x="430" y="-210" width="180" height="200" as="geometry" />
        </mxCell>
        <mxCell id="ob_97SbMXPfb_6fFZYyK-58" value="" style="shape=partialRectangle;collapsible=0;dropTarget=0;pointerEvents=0;fillColor=none;top=0;left=0;bottom=1;right=0;points=[[0,0.5],[1,0.5]];portConstraint=eastwest;rounded=1;" parent="ob_97SbMXPfb_6fFZYyK-57" vertex="1">
          <mxGeometry y="30" width="180" height="40" as="geometry" />
        </mxCell>
        <mxCell id="ob_97SbMXPfb_6fFZYyK-59" value="PK" style="shape=partialRectangle;connectable=0;fillColor=none;top=0;left=0;bottom=0;right=0;fontStyle=1;overflow=hidden;rounded=1;" parent="ob_97SbMXPfb_6fFZYyK-58" vertex="1">
          <mxGeometry width="30" height="40" as="geometry" />
        </mxCell>
        <mxCell id="ob_97SbMXPfb_6fFZYyK-60" value="Student ID" style="shape=partialRectangle;connectable=0;fillColor=none;top=0;left=0;bottom=0;right=0;align=left;spacingLeft=6;fontStyle=5;overflow=hidden;rounded=1;" parent="ob_97SbMXPfb_6fFZYyK-58" vertex="1">
          <mxGeometry x="30" width="150" height="40" as="geometry" />
        </mxCell>
        <mxCell id="ob_97SbMXPfb_6fFZYyK-118" value="" style="shape=partialRectangle;collapsible=0;dropTarget=0;pointerEvents=0;fillColor=none;top=0;left=0;bottom=0;right=0;points=[[0,0.5],[1,0.5]];portConstraint=eastwest;rounded=1;" parent="ob_97SbMXPfb_6fFZYyK-57" vertex="1">
          <mxGeometry y="70" width="180" height="30" as="geometry" />
        </mxCell>
        <mxCell id="ob_97SbMXPfb_6fFZYyK-119" value="FK" style="shape=partialRectangle;connectable=0;fillColor=none;top=0;left=0;bottom=0;right=0;editable=1;overflow=hidden;rounded=1;" parent="ob_97SbMXPfb_6fFZYyK-118" vertex="1">
          <mxGeometry width="30" height="30" as="geometry" />
        </mxCell>
        <mxCell id="ob_97SbMXPfb_6fFZYyK-120" value="Character ID" style="shape=partialRectangle;connectable=0;fillColor=none;top=0;left=0;bottom=0;right=0;align=left;spacingLeft=6;overflow=hidden;rounded=1;" parent="ob_97SbMXPfb_6fFZYyK-118" vertex="1">
          <mxGeometry x="30" width="150" height="30" as="geometry" />
        </mxCell>
        <mxCell id="ob_97SbMXPfb_6fFZYyK-61" value="" style="shape=partialRectangle;collapsible=0;dropTarget=0;pointerEvents=0;fillColor=none;top=0;left=0;bottom=0;right=0;points=[[0,0.5],[1,0.5]];portConstraint=eastwest;rounded=1;" parent="ob_97SbMXPfb_6fFZYyK-57" vertex="1">
          <mxGeometry y="100" width="180" height="30" as="geometry" />
        </mxCell>
        <mxCell id="ob_97SbMXPfb_6fFZYyK-62" value="" style="shape=partialRectangle;connectable=0;fillColor=none;top=0;left=0;bottom=0;right=0;editable=1;overflow=hidden;rounded=1;" parent="ob_97SbMXPfb_6fFZYyK-61" vertex="1">
          <mxGeometry width="30" height="30" as="geometry" />
        </mxCell>
        <mxCell id="ob_97SbMXPfb_6fFZYyK-63" value="Name" style="shape=partialRectangle;connectable=0;fillColor=none;top=0;left=0;bottom=0;right=0;align=left;spacingLeft=6;overflow=hidden;rounded=1;" parent="ob_97SbMXPfb_6fFZYyK-61" vertex="1">
          <mxGeometry x="30" width="150" height="30" as="geometry" />
        </mxCell>
        <mxCell id="IhlZ9XWbwey3wgOkCbIA-1" value="" style="shape=partialRectangle;collapsible=0;dropTarget=0;pointerEvents=0;fillColor=none;top=0;left=0;bottom=0;right=0;points=[[0,0.5],[1,0.5]];portConstraint=eastwest;rounded=1;" parent="ob_97SbMXPfb_6fFZYyK-57" vertex="1">
          <mxGeometry y="130" width="180" height="30" as="geometry" />
        </mxCell>
        <mxCell id="IhlZ9XWbwey3wgOkCbIA-2" value="FK" style="shape=partialRectangle;connectable=0;fillColor=none;top=0;left=0;bottom=0;right=0;fontStyle=0;overflow=hidden;rounded=1;" parent="IhlZ9XWbwey3wgOkCbIA-1" vertex="1">
          <mxGeometry width="30" height="30" as="geometry" />
        </mxCell>
        <mxCell id="IhlZ9XWbwey3wgOkCbIA-3" value="School ID" style="shape=partialRectangle;connectable=0;fillColor=none;top=0;left=0;bottom=0;right=0;align=left;spacingLeft=6;fontStyle=0;overflow=hidden;rounded=1;" parent="IhlZ9XWbwey3wgOkCbIA-1" vertex="1">
          <mxGeometry x="30" width="150" height="30" as="geometry" />
        </mxCell>
        <mxCell id="ob_97SbMXPfb_6fFZYyK-67" value="" style="shape=partialRectangle;collapsible=0;dropTarget=0;pointerEvents=0;fillColor=none;top=0;left=0;bottom=0;right=0;points=[[0,0.5],[1,0.5]];portConstraint=eastwest;rounded=1;" parent="ob_97SbMXPfb_6fFZYyK-57" vertex="1">
          <mxGeometry y="160" width="180" height="30" as="geometry" />
        </mxCell>
        <mxCell id="ob_97SbMXPfb_6fFZYyK-68" value="" style="shape=partialRectangle;connectable=0;fillColor=none;top=0;left=0;bottom=0;right=0;editable=1;overflow=hidden;rounded=1;" parent="ob_97SbMXPfb_6fFZYyK-67" vertex="1">
          <mxGeometry width="30" height="30" as="geometry" />
        </mxCell>
        <mxCell id="ob_97SbMXPfb_6fFZYyK-69" value="Year" style="shape=partialRectangle;connectable=0;fillColor=none;top=0;left=0;bottom=0;right=0;align=left;spacingLeft=6;overflow=hidden;rounded=1;" parent="ob_97SbMXPfb_6fFZYyK-67" vertex="1">
          <mxGeometry x="30" width="150" height="30" as="geometry" />
        </mxCell>
        <mxCell id="ob_97SbMXPfb_6fFZYyK-70" value="Course" style="shape=table;startSize=30;container=1;collapsible=1;childLayout=tableLayout;fixedRows=1;rowLines=0;fontStyle=1;align=center;resizeLast=1;fillColor=#dae8fc;strokeColor=#6c8ebf;rounded=1;" parent="1" vertex="1">
          <mxGeometry x="1474" y="-684" width="180" height="154" as="geometry" />
        </mxCell>
        <mxCell id="ob_97SbMXPfb_6fFZYyK-71" value="" style="shape=partialRectangle;collapsible=0;dropTarget=0;pointerEvents=0;fillColor=none;top=0;left=0;bottom=1;right=0;points=[[0,0.5],[1,0.5]];portConstraint=eastwest;rounded=1;" parent="ob_97SbMXPfb_6fFZYyK-70" vertex="1">
          <mxGeometry y="30" width="180" height="54" as="geometry" />
        </mxCell>
        <mxCell id="ob_97SbMXPfb_6fFZYyK-72" value="PK" style="shape=partialRectangle;connectable=0;fillColor=none;top=0;left=0;bottom=0;right=0;fontStyle=1;overflow=hidden;rounded=1;" parent="ob_97SbMXPfb_6fFZYyK-71" vertex="1">
          <mxGeometry width="30" height="54" as="geometry" />
        </mxCell>
        <mxCell id="ob_97SbMXPfb_6fFZYyK-73" value="Course ID" style="shape=partialRectangle;connectable=0;fillColor=none;top=0;left=0;bottom=0;right=0;align=left;spacingLeft=6;fontStyle=5;overflow=hidden;rounded=1;" parent="ob_97SbMXPfb_6fFZYyK-71" vertex="1">
          <mxGeometry x="30" width="150" height="54" as="geometry" />
        </mxCell>
        <mxCell id="ob_97SbMXPfb_6fFZYyK-74" value="" style="shape=partialRectangle;collapsible=0;dropTarget=0;pointerEvents=0;fillColor=none;top=0;left=0;bottom=0;right=0;points=[[0,0.5],[1,0.5]];portConstraint=eastwest;rounded=1;" parent="ob_97SbMXPfb_6fFZYyK-70" vertex="1">
          <mxGeometry y="84" width="180" height="30" as="geometry" />
        </mxCell>
        <mxCell id="ob_97SbMXPfb_6fFZYyK-75" value="" style="shape=partialRectangle;connectable=0;fillColor=none;top=0;left=0;bottom=0;right=0;editable=1;overflow=hidden;rounded=1;" parent="ob_97SbMXPfb_6fFZYyK-74" vertex="1">
          <mxGeometry width="30" height="30" as="geometry" />
        </mxCell>
        <mxCell id="ob_97SbMXPfb_6fFZYyK-76" value="Course Name" style="shape=partialRectangle;connectable=0;fillColor=none;top=0;left=0;bottom=0;right=0;align=left;spacingLeft=6;overflow=hidden;rounded=1;" parent="ob_97SbMXPfb_6fFZYyK-74" vertex="1">
          <mxGeometry x="30" width="150" height="30" as="geometry" />
        </mxCell>
        <mxCell id="5d3oSk-wsn04Um7uAE1o-49" value="" style="shape=partialRectangle;collapsible=0;dropTarget=0;pointerEvents=0;fillColor=none;top=0;left=0;bottom=0;right=0;points=[[0,0.5],[1,0.5]];portConstraint=eastwest;rounded=1;" vertex="1" parent="ob_97SbMXPfb_6fFZYyK-70">
          <mxGeometry y="114" width="180" height="30" as="geometry" />
        </mxCell>
        <mxCell id="5d3oSk-wsn04Um7uAE1o-50" value="" style="shape=partialRectangle;connectable=0;fillColor=none;top=0;left=0;bottom=0;right=0;editable=1;overflow=hidden;" vertex="1" parent="5d3oSk-wsn04Um7uAE1o-49">
          <mxGeometry width="30" height="30" as="geometry" />
        </mxCell>
        <mxCell id="5d3oSk-wsn04Um7uAE1o-51" value="Credit Hours" style="shape=partialRectangle;connectable=0;fillColor=none;top=0;left=0;bottom=0;right=0;align=left;spacingLeft=6;overflow=hidden;" vertex="1" parent="5d3oSk-wsn04Um7uAE1o-49">
          <mxGeometry x="30" width="150" height="30" as="geometry" />
        </mxCell>
        <mxCell id="ob_97SbMXPfb_6fFZYyK-96" value="Professor" style="shape=table;startSize=30;container=1;collapsible=1;childLayout=tableLayout;fixedRows=1;rowLines=0;fontStyle=1;align=center;resizeLast=1;fillColor=#dae8fc;strokeColor=#6c8ebf;rounded=1;" parent="1" vertex="1">
          <mxGeometry x="900" y="-840" width="180" height="160" as="geometry" />
        </mxCell>
        <mxCell id="ob_97SbMXPfb_6fFZYyK-97" value="" style="shape=partialRectangle;collapsible=0;dropTarget=0;pointerEvents=0;fillColor=none;top=0;left=0;bottom=1;right=0;points=[[0,0.5],[1,0.5]];portConstraint=eastwest;rounded=1;" parent="ob_97SbMXPfb_6fFZYyK-96" vertex="1">
          <mxGeometry y="30" width="180" height="30" as="geometry" />
        </mxCell>
        <mxCell id="ob_97SbMXPfb_6fFZYyK-98" value="PK" style="shape=partialRectangle;connectable=0;fillColor=none;top=0;left=0;bottom=0;right=0;fontStyle=1;overflow=hidden;rounded=1;" parent="ob_97SbMXPfb_6fFZYyK-97" vertex="1">
          <mxGeometry width="30" height="30" as="geometry" />
        </mxCell>
        <mxCell id="ob_97SbMXPfb_6fFZYyK-99" value="Professor ID" style="shape=partialRectangle;connectable=0;fillColor=none;top=0;left=0;bottom=0;right=0;align=left;spacingLeft=6;fontStyle=5;overflow=hidden;rounded=1;" parent="ob_97SbMXPfb_6fFZYyK-97" vertex="1">
          <mxGeometry x="30" width="150" height="30" as="geometry" />
        </mxCell>
        <mxCell id="ob_97SbMXPfb_6fFZYyK-100" value="" style="shape=partialRectangle;collapsible=0;dropTarget=0;pointerEvents=0;fillColor=none;top=0;left=0;bottom=0;right=0;points=[[0,0.5],[1,0.5]];portConstraint=eastwest;rounded=1;" parent="ob_97SbMXPfb_6fFZYyK-96" vertex="1">
          <mxGeometry y="60" width="180" height="30" as="geometry" />
        </mxCell>
        <mxCell id="ob_97SbMXPfb_6fFZYyK-101" value="" style="shape=partialRectangle;connectable=0;fillColor=none;top=0;left=0;bottom=0;right=0;editable=1;overflow=hidden;rounded=1;" parent="ob_97SbMXPfb_6fFZYyK-100" vertex="1">
          <mxGeometry width="30" height="30" as="geometry" />
        </mxCell>
        <mxCell id="ob_97SbMXPfb_6fFZYyK-102" value="Professor Name" style="shape=partialRectangle;connectable=0;fillColor=none;top=0;left=0;bottom=0;right=0;align=left;spacingLeft=6;overflow=hidden;rounded=1;" parent="ob_97SbMXPfb_6fFZYyK-100" vertex="1">
          <mxGeometry x="30" width="150" height="30" as="geometry" />
        </mxCell>
        <mxCell id="PE_-QwPCLmoHqQB92Fj--51" value="" style="shape=partialRectangle;collapsible=0;dropTarget=0;pointerEvents=0;fillColor=none;top=0;left=0;bottom=0;right=0;points=[[0,0.5],[1,0.5]];portConstraint=eastwest;strokeColor=#028090;fontColor=#E4FDE1;rounded=1;" parent="ob_97SbMXPfb_6fFZYyK-96" vertex="1">
          <mxGeometry y="90" width="180" height="30" as="geometry" />
        </mxCell>
        <mxCell id="PE_-QwPCLmoHqQB92Fj--52" value="FK" style="shape=partialRectangle;connectable=0;fillColor=none;top=0;left=0;bottom=0;right=0;fontStyle=0;overflow=hidden;rounded=1;" parent="PE_-QwPCLmoHqQB92Fj--51" vertex="1">
          <mxGeometry width="30" height="30" as="geometry" />
        </mxCell>
        <mxCell id="PE_-QwPCLmoHqQB92Fj--53" value="Course ID" style="shape=partialRectangle;connectable=0;fillColor=none;top=0;left=0;bottom=0;right=0;align=left;spacingLeft=6;fontStyle=0;overflow=hidden;rounded=1;" parent="PE_-QwPCLmoHqQB92Fj--51" vertex="1">
          <mxGeometry x="30" width="150" height="30" as="geometry" />
        </mxCell>
        <mxCell id="ob_97SbMXPfb_6fFZYyK-106" value="" style="shape=partialRectangle;collapsible=0;dropTarget=0;pointerEvents=0;fillColor=none;top=0;left=0;bottom=0;right=0;points=[[0,0.5],[1,0.5]];portConstraint=eastwest;rounded=1;" parent="ob_97SbMXPfb_6fFZYyK-96" vertex="1">
          <mxGeometry y="120" width="180" height="30" as="geometry" />
        </mxCell>
        <mxCell id="ob_97SbMXPfb_6fFZYyK-107" value="FK" style="shape=partialRectangle;connectable=0;fillColor=none;top=0;left=0;bottom=0;right=0;editable=1;overflow=hidden;rounded=1;" parent="ob_97SbMXPfb_6fFZYyK-106" vertex="1">
          <mxGeometry width="30" height="30" as="geometry" />
        </mxCell>
        <mxCell id="ob_97SbMXPfb_6fFZYyK-108" value="Character ID" style="shape=partialRectangle;connectable=0;fillColor=none;top=0;left=0;bottom=0;right=0;align=left;spacingLeft=6;overflow=hidden;rounded=1;" parent="ob_97SbMXPfb_6fFZYyK-106" vertex="1">
          <mxGeometry x="30" width="150" height="30" as="geometry" />
        </mxCell>
        <mxCell id="ob_97SbMXPfb_6fFZYyK-121" value="Grade" style="shape=table;startSize=30;container=1;collapsible=1;childLayout=tableLayout;fixedRows=1;rowLines=0;fontStyle=1;align=center;resizeLast=1;fillColor=#f0a30a;strokeColor=#BD7000;fontColor=#ffffff;rounded=1;" parent="1" vertex="1">
          <mxGeometry x="240" y="-680" width="180" height="160" as="geometry" />
        </mxCell>
        <mxCell id="ob_97SbMXPfb_6fFZYyK-137" value="" style="shape=partialRectangle;collapsible=0;dropTarget=0;pointerEvents=0;fillColor=none;top=0;left=0;bottom=0;right=0;points=[[0,0.5],[1,0.5]];portConstraint=eastwest;rounded=1;" parent="ob_97SbMXPfb_6fFZYyK-121" vertex="1">
          <mxGeometry y="30" width="180" height="30" as="geometry" />
        </mxCell>
        <mxCell id="ob_97SbMXPfb_6fFZYyK-138" value="FK" style="shape=partialRectangle;connectable=0;fillColor=none;top=0;left=0;bottom=0;right=0;fontStyle=0;overflow=hidden;rounded=1;" parent="ob_97SbMXPfb_6fFZYyK-137" vertex="1">
          <mxGeometry width="30" height="30" as="geometry" />
        </mxCell>
        <mxCell id="ob_97SbMXPfb_6fFZYyK-139" value="Student ID" style="shape=partialRectangle;connectable=0;fillColor=none;top=0;left=0;bottom=0;right=0;align=left;spacingLeft=6;fontStyle=0;overflow=hidden;rounded=1;" parent="ob_97SbMXPfb_6fFZYyK-137" vertex="1">
          <mxGeometry x="30" width="150" height="30" as="geometry" />
        </mxCell>
        <mxCell id="ob_97SbMXPfb_6fFZYyK-134" value="" style="shape=partialRectangle;collapsible=0;dropTarget=0;pointerEvents=0;fillColor=none;top=0;left=0;bottom=0;right=0;points=[[0,0.5],[1,0.5]];portConstraint=eastwest;rounded=1;" parent="ob_97SbMXPfb_6fFZYyK-121" vertex="1">
          <mxGeometry y="60" width="180" height="30" as="geometry" />
        </mxCell>
        <mxCell id="ob_97SbMXPfb_6fFZYyK-135" value="FK" style="shape=partialRectangle;connectable=0;fillColor=none;top=0;left=0;bottom=0;right=0;fontStyle=0;overflow=hidden;rounded=1;" parent="ob_97SbMXPfb_6fFZYyK-134" vertex="1">
          <mxGeometry width="30" height="30" as="geometry" />
        </mxCell>
        <mxCell id="ob_97SbMXPfb_6fFZYyK-136" value="Course ID" style="shape=partialRectangle;connectable=0;fillColor=none;top=0;left=0;bottom=0;right=0;align=left;spacingLeft=6;fontStyle=0;overflow=hidden;rounded=1;" parent="ob_97SbMXPfb_6fFZYyK-134" vertex="1">
          <mxGeometry x="30" width="150" height="30" as="geometry" />
        </mxCell>
        <mxCell id="ob_97SbMXPfb_6fFZYyK-128" value="" style="shape=partialRectangle;collapsible=0;dropTarget=0;pointerEvents=0;fillColor=none;top=0;left=0;bottom=0;right=0;points=[[0,0.5],[1,0.5]];portConstraint=eastwest;rounded=1;" parent="ob_97SbMXPfb_6fFZYyK-121" vertex="1">
          <mxGeometry y="90" width="180" height="30" as="geometry" />
        </mxCell>
        <mxCell id="ob_97SbMXPfb_6fFZYyK-129" value="" style="shape=partialRectangle;connectable=0;fillColor=none;top=0;left=0;bottom=0;right=0;editable=1;overflow=hidden;rounded=1;" parent="ob_97SbMXPfb_6fFZYyK-128" vertex="1">
          <mxGeometry width="30" height="30" as="geometry" />
        </mxCell>
        <mxCell id="ob_97SbMXPfb_6fFZYyK-130" value="Grade" style="shape=partialRectangle;connectable=0;fillColor=none;top=0;left=0;bottom=0;right=0;align=left;spacingLeft=6;overflow=hidden;rounded=1;" parent="ob_97SbMXPfb_6fFZYyK-128" vertex="1">
          <mxGeometry x="30" width="150" height="30" as="geometry" />
        </mxCell>
        <mxCell id="PE_-QwPCLmoHqQB92Fj--42" value="" style="shape=partialRectangle;collapsible=0;dropTarget=0;pointerEvents=0;fillColor=none;top=0;left=0;bottom=0;right=0;points=[[0,0.5],[1,0.5]];portConstraint=eastwest;rounded=1;" parent="ob_97SbMXPfb_6fFZYyK-121" vertex="1">
          <mxGeometry y="120" width="180" height="30" as="geometry" />
        </mxCell>
        <mxCell id="PE_-QwPCLmoHqQB92Fj--43" value="" style="shape=partialRectangle;connectable=0;fillColor=none;top=0;left=0;bottom=0;right=0;editable=1;overflow=hidden;rounded=1;" parent="PE_-QwPCLmoHqQB92Fj--42" vertex="1">
          <mxGeometry width="30" height="30" as="geometry" />
        </mxCell>
        <mxCell id="PE_-QwPCLmoHqQB92Fj--44" value="Year" style="shape=partialRectangle;connectable=0;fillColor=none;top=0;left=0;bottom=0;right=0;align=left;spacingLeft=6;overflow=hidden;rounded=1;" parent="PE_-QwPCLmoHqQB92Fj--42" vertex="1">
          <mxGeometry x="30" width="150" height="30" as="geometry" />
        </mxCell>
        <mxCell id="ob_97SbMXPfb_6fFZYyK-140" value="Levels" style="shape=table;startSize=30;container=1;collapsible=1;childLayout=tableLayout;fixedRows=1;rowLines=0;fontStyle=1;align=center;resizeLast=1;fillColor=#f5f5f5;strokeColor=#666666;fontColor=#333333;rounded=1;" parent="1" vertex="1">
          <mxGeometry x="1270" y="-250" width="180" height="130" as="geometry" />
        </mxCell>
        <mxCell id="ob_97SbMXPfb_6fFZYyK-141" value="" style="shape=partialRectangle;collapsible=0;dropTarget=0;pointerEvents=0;fillColor=none;top=0;left=0;bottom=1;right=0;points=[[0,0.5],[1,0.5]];portConstraint=eastwest;rounded=1;" parent="ob_97SbMXPfb_6fFZYyK-140" vertex="1">
          <mxGeometry y="30" width="180" height="30" as="geometry" />
        </mxCell>
        <mxCell id="ob_97SbMXPfb_6fFZYyK-142" value="PK" style="shape=partialRectangle;connectable=0;fillColor=none;top=0;left=0;bottom=0;right=0;fontStyle=1;overflow=hidden;rounded=1;" parent="ob_97SbMXPfb_6fFZYyK-141" vertex="1">
          <mxGeometry width="30" height="30" as="geometry" />
        </mxCell>
        <mxCell id="ob_97SbMXPfb_6fFZYyK-143" value="Level ID" style="shape=partialRectangle;connectable=0;fillColor=none;top=0;left=0;bottom=0;right=0;align=left;spacingLeft=6;fontStyle=5;overflow=hidden;rounded=1;" parent="ob_97SbMXPfb_6fFZYyK-141" vertex="1">
          <mxGeometry x="30" width="150" height="30" as="geometry" />
        </mxCell>
        <mxCell id="PE_-QwPCLmoHqQB92Fj--39" value="" style="shape=partialRectangle;collapsible=0;dropTarget=0;pointerEvents=0;fillColor=none;top=0;left=0;bottom=0;right=0;points=[[0,0.5],[1,0.5]];portConstraint=eastwest;rounded=1;" parent="ob_97SbMXPfb_6fFZYyK-140" vertex="1">
          <mxGeometry y="60" width="180" height="30" as="geometry" />
        </mxCell>
        <mxCell id="PE_-QwPCLmoHqQB92Fj--40" value="FK" style="shape=partialRectangle;connectable=0;fillColor=none;top=0;left=0;bottom=0;right=0;fontStyle=0;overflow=hidden;rounded=1;" parent="PE_-QwPCLmoHqQB92Fj--39" vertex="1">
          <mxGeometry width="30" height="30" as="geometry" />
        </mxCell>
        <mxCell id="PE_-QwPCLmoHqQB92Fj--41" value="Minister ID" style="shape=partialRectangle;connectable=0;fillColor=none;top=0;left=0;bottom=0;right=0;align=left;spacingLeft=6;fontStyle=0;overflow=hidden;rounded=1;" parent="PE_-QwPCLmoHqQB92Fj--39" vertex="1">
          <mxGeometry x="30" width="150" height="30" as="geometry" />
        </mxCell>
        <mxCell id="ob_97SbMXPfb_6fFZYyK-144" value="" style="shape=partialRectangle;collapsible=0;dropTarget=0;pointerEvents=0;fillColor=none;top=0;left=0;bottom=0;right=0;points=[[0,0.5],[1,0.5]];portConstraint=eastwest;rounded=1;" parent="ob_97SbMXPfb_6fFZYyK-140" vertex="1">
          <mxGeometry y="90" width="180" height="30" as="geometry" />
        </mxCell>
        <mxCell id="ob_97SbMXPfb_6fFZYyK-145" value="" style="shape=partialRectangle;connectable=0;fillColor=none;top=0;left=0;bottom=0;right=0;editable=1;overflow=hidden;rounded=1;" parent="ob_97SbMXPfb_6fFZYyK-144" vertex="1">
          <mxGeometry width="30" height="30" as="geometry" />
        </mxCell>
        <mxCell id="ob_97SbMXPfb_6fFZYyK-146" value="Level Name" style="shape=partialRectangle;connectable=0;fillColor=none;top=0;left=0;bottom=0;right=0;align=left;spacingLeft=6;overflow=hidden;rounded=1;" parent="ob_97SbMXPfb_6fFZYyK-144" vertex="1">
          <mxGeometry x="30" width="150" height="30" as="geometry" />
        </mxCell>
        <mxCell id="ob_97SbMXPfb_6fFZYyK-153" value="Employee" style="shape=table;startSize=30;container=1;collapsible=1;childLayout=tableLayout;fixedRows=1;rowLines=0;fontStyle=1;align=center;resizeLast=1;fillColor=#f5f5f5;strokeColor=#666666;fontColor=#333333;rounded=1;" parent="1" vertex="1">
          <mxGeometry x="1000" y="-60" width="180" height="190" as="geometry" />
        </mxCell>
        <mxCell id="ob_97SbMXPfb_6fFZYyK-154" value="" style="shape=partialRectangle;collapsible=0;dropTarget=0;pointerEvents=0;fillColor=none;top=0;left=0;bottom=1;right=0;points=[[0,0.5],[1,0.5]];portConstraint=eastwest;rounded=1;" parent="ob_97SbMXPfb_6fFZYyK-153" vertex="1">
          <mxGeometry y="30" width="180" height="30" as="geometry" />
        </mxCell>
        <mxCell id="ob_97SbMXPfb_6fFZYyK-155" value="PK" style="shape=partialRectangle;connectable=0;fillColor=none;top=0;left=0;bottom=0;right=0;fontStyle=1;overflow=hidden;rounded=1;" parent="ob_97SbMXPfb_6fFZYyK-154" vertex="1">
          <mxGeometry width="30" height="30" as="geometry" />
        </mxCell>
        <mxCell id="ob_97SbMXPfb_6fFZYyK-156" value="Employee ID" style="shape=partialRectangle;connectable=0;fillColor=none;top=0;left=0;bottom=0;right=0;align=left;spacingLeft=6;fontStyle=5;overflow=hidden;rounded=1;" parent="ob_97SbMXPfb_6fFZYyK-154" vertex="1">
          <mxGeometry x="30" width="150" height="30" as="geometry" />
        </mxCell>
        <mxCell id="ob_97SbMXPfb_6fFZYyK-157" value="" style="shape=partialRectangle;collapsible=0;dropTarget=0;pointerEvents=0;fillColor=none;top=0;left=0;bottom=0;right=0;points=[[0,0.5],[1,0.5]];portConstraint=eastwest;rounded=1;" parent="ob_97SbMXPfb_6fFZYyK-153" vertex="1">
          <mxGeometry y="60" width="180" height="30" as="geometry" />
        </mxCell>
        <mxCell id="ob_97SbMXPfb_6fFZYyK-158" value="" style="shape=partialRectangle;connectable=0;fillColor=none;top=0;left=0;bottom=0;right=0;editable=1;overflow=hidden;rounded=1;" parent="ob_97SbMXPfb_6fFZYyK-157" vertex="1">
          <mxGeometry width="30" height="30" as="geometry" />
        </mxCell>
        <mxCell id="ob_97SbMXPfb_6fFZYyK-159" value="Employee Name" style="shape=partialRectangle;connectable=0;fillColor=none;top=0;left=0;bottom=0;right=0;align=left;spacingLeft=6;overflow=hidden;rounded=1;" parent="ob_97SbMXPfb_6fFZYyK-157" vertex="1">
          <mxGeometry x="30" width="150" height="30" as="geometry" />
        </mxCell>
        <mxCell id="PE_-QwPCLmoHqQB92Fj--45" value="" style="shape=partialRectangle;collapsible=0;dropTarget=0;pointerEvents=0;fillColor=none;top=0;left=0;bottom=0;right=0;points=[[0,0.5],[1,0.5]];portConstraint=eastwest;rounded=1;" parent="ob_97SbMXPfb_6fFZYyK-153" vertex="1">
          <mxGeometry y="90" width="180" height="30" as="geometry" />
        </mxCell>
        <mxCell id="PE_-QwPCLmoHqQB92Fj--46" value="" style="shape=partialRectangle;connectable=0;fillColor=none;top=0;left=0;bottom=0;right=0;editable=1;overflow=hidden;rounded=1;" parent="PE_-QwPCLmoHqQB92Fj--45" vertex="1">
          <mxGeometry width="30" height="30" as="geometry" />
        </mxCell>
        <mxCell id="PE_-QwPCLmoHqQB92Fj--47" value="Age" style="shape=partialRectangle;connectable=0;fillColor=none;top=0;left=0;bottom=0;right=0;align=left;spacingLeft=6;overflow=hidden;rounded=1;" parent="PE_-QwPCLmoHqQB92Fj--45" vertex="1">
          <mxGeometry x="30" width="150" height="30" as="geometry" />
        </mxCell>
        <mxCell id="ob_97SbMXPfb_6fFZYyK-163" value="" style="shape=partialRectangle;collapsible=0;dropTarget=0;pointerEvents=0;fillColor=none;top=0;left=0;bottom=0;right=0;points=[[0,0.5],[1,0.5]];portConstraint=eastwest;rounded=1;" parent="ob_97SbMXPfb_6fFZYyK-153" vertex="1">
          <mxGeometry y="120" width="180" height="30" as="geometry" />
        </mxCell>
        <mxCell id="ob_97SbMXPfb_6fFZYyK-164" value="" style="shape=partialRectangle;connectable=0;fillColor=none;top=0;left=0;bottom=0;right=0;editable=1;overflow=hidden;rounded=1;" parent="ob_97SbMXPfb_6fFZYyK-163" vertex="1">
          <mxGeometry width="30" height="30" as="geometry" />
        </mxCell>
        <mxCell id="ob_97SbMXPfb_6fFZYyK-165" value="Job" style="shape=partialRectangle;connectable=0;fillColor=none;top=0;left=0;bottom=0;right=0;align=left;spacingLeft=6;overflow=hidden;rounded=1;" parent="ob_97SbMXPfb_6fFZYyK-163" vertex="1">
          <mxGeometry x="30" width="150" height="30" as="geometry" />
        </mxCell>
        <mxCell id="PE_-QwPCLmoHqQB92Fj--54" value="" style="shape=partialRectangle;collapsible=0;dropTarget=0;pointerEvents=0;fillColor=none;top=0;left=0;bottom=0;right=0;points=[[0,0.5],[1,0.5]];portConstraint=eastwest;strokeColor=#028090;fontColor=#E4FDE1;rounded=1;" parent="ob_97SbMXPfb_6fFZYyK-153" vertex="1">
          <mxGeometry y="150" width="180" height="30" as="geometry" />
        </mxCell>
        <mxCell id="PE_-QwPCLmoHqQB92Fj--55" value="FK" style="shape=partialRectangle;connectable=0;fillColor=none;top=0;left=0;bottom=0;right=0;fontStyle=0;overflow=hidden;rounded=1;" parent="PE_-QwPCLmoHqQB92Fj--54" vertex="1">
          <mxGeometry width="30" height="30" as="geometry" />
        </mxCell>
        <mxCell id="PE_-QwPCLmoHqQB92Fj--56" value="Character ID" style="shape=partialRectangle;connectable=0;fillColor=none;top=0;left=0;bottom=0;right=0;align=left;spacingLeft=6;fontStyle=0;overflow=hidden;rounded=1;" parent="PE_-QwPCLmoHqQB92Fj--54" vertex="1">
          <mxGeometry x="30" width="150" height="30" as="geometry" />
        </mxCell>
        <mxCell id="ob_97SbMXPfb_6fFZYyK-166" value="Office" style="shape=table;startSize=30;container=1;collapsible=1;childLayout=tableLayout;fixedRows=1;rowLines=0;fontStyle=1;align=center;resizeLast=1;fillColor=#f5f5f5;strokeColor=#666666;fontColor=#333333;rounded=1;" parent="1" vertex="1">
          <mxGeometry x="1510" y="-50" width="180" height="190" as="geometry" />
        </mxCell>
        <mxCell id="ob_97SbMXPfb_6fFZYyK-167" value="" style="shape=partialRectangle;collapsible=0;dropTarget=0;pointerEvents=0;fillColor=none;top=0;left=0;bottom=1;right=0;points=[[0,0.5],[1,0.5]];portConstraint=eastwest;rounded=1;" parent="ob_97SbMXPfb_6fFZYyK-166" vertex="1">
          <mxGeometry y="30" width="180" height="30" as="geometry" />
        </mxCell>
        <mxCell id="ob_97SbMXPfb_6fFZYyK-168" value="PK" style="shape=partialRectangle;connectable=0;fillColor=none;top=0;left=0;bottom=0;right=0;fontStyle=1;overflow=hidden;rounded=1;" parent="ob_97SbMXPfb_6fFZYyK-167" vertex="1">
          <mxGeometry width="30" height="30" as="geometry" />
        </mxCell>
        <mxCell id="ob_97SbMXPfb_6fFZYyK-169" value="Office ID" style="shape=partialRectangle;connectable=0;fillColor=none;top=0;left=0;bottom=0;right=0;align=left;spacingLeft=6;fontStyle=5;overflow=hidden;rounded=1;" parent="ob_97SbMXPfb_6fFZYyK-167" vertex="1">
          <mxGeometry x="30" width="150" height="30" as="geometry" />
        </mxCell>
        <mxCell id="ob_97SbMXPfb_6fFZYyK-170" value="" style="shape=partialRectangle;collapsible=0;dropTarget=0;pointerEvents=0;fillColor=none;top=0;left=0;bottom=0;right=0;points=[[0,0.5],[1,0.5]];portConstraint=eastwest;rounded=1;" parent="ob_97SbMXPfb_6fFZYyK-166" vertex="1">
          <mxGeometry y="60" width="180" height="30" as="geometry" />
        </mxCell>
        <mxCell id="ob_97SbMXPfb_6fFZYyK-171" value="" style="shape=partialRectangle;connectable=0;fillColor=none;top=0;left=0;bottom=0;right=0;editable=1;overflow=hidden;rounded=1;" parent="ob_97SbMXPfb_6fFZYyK-170" vertex="1">
          <mxGeometry width="30" height="30" as="geometry" />
        </mxCell>
        <mxCell id="ob_97SbMXPfb_6fFZYyK-172" value="Office Name" style="shape=partialRectangle;connectable=0;fillColor=none;top=0;left=0;bottom=0;right=0;align=left;spacingLeft=6;overflow=hidden;rounded=1;" parent="ob_97SbMXPfb_6fFZYyK-170" vertex="1">
          <mxGeometry x="30" width="150" height="30" as="geometry" />
        </mxCell>
        <mxCell id="ob_97SbMXPfb_6fFZYyK-173" value="" style="shape=partialRectangle;collapsible=0;dropTarget=0;pointerEvents=0;fillColor=none;top=0;left=0;bottom=0;right=0;points=[[0,0.5],[1,0.5]];portConstraint=eastwest;rounded=1;" parent="ob_97SbMXPfb_6fFZYyK-166" vertex="1">
          <mxGeometry y="90" width="180" height="30" as="geometry" />
        </mxCell>
        <mxCell id="ob_97SbMXPfb_6fFZYyK-174" value="FK" style="shape=partialRectangle;connectable=0;fillColor=none;top=0;left=0;bottom=0;right=0;editable=1;overflow=hidden;rounded=1;" parent="ob_97SbMXPfb_6fFZYyK-173" vertex="1">
          <mxGeometry width="30" height="30" as="geometry" />
        </mxCell>
        <mxCell id="ob_97SbMXPfb_6fFZYyK-175" value="Level ID" style="shape=partialRectangle;connectable=0;fillColor=none;top=0;left=0;bottom=0;right=0;align=left;spacingLeft=6;overflow=hidden;rounded=1;" parent="ob_97SbMXPfb_6fFZYyK-173" vertex="1">
          <mxGeometry x="30" width="150" height="30" as="geometry" />
        </mxCell>
        <mxCell id="ob_97SbMXPfb_6fFZYyK-176" value="" style="shape=partialRectangle;collapsible=0;dropTarget=0;pointerEvents=0;fillColor=none;top=0;left=0;bottom=0;right=0;points=[[0,0.5],[1,0.5]];portConstraint=eastwest;rounded=1;" parent="ob_97SbMXPfb_6fFZYyK-166" vertex="1">
          <mxGeometry y="120" width="180" height="30" as="geometry" />
        </mxCell>
        <mxCell id="ob_97SbMXPfb_6fFZYyK-177" value="FK" style="shape=partialRectangle;connectable=0;fillColor=none;top=0;left=0;bottom=0;right=0;editable=1;overflow=hidden;rounded=1;" parent="ob_97SbMXPfb_6fFZYyK-176" vertex="1">
          <mxGeometry width="30" height="30" as="geometry" />
        </mxCell>
        <mxCell id="ob_97SbMXPfb_6fFZYyK-178" value="Incharge ID" style="shape=partialRectangle;connectable=0;fillColor=none;top=0;left=0;bottom=0;right=0;align=left;spacingLeft=6;overflow=hidden;rounded=1;" parent="ob_97SbMXPfb_6fFZYyK-176" vertex="1">
          <mxGeometry x="30" width="150" height="30" as="geometry" />
        </mxCell>
        <mxCell id="5d3oSk-wsn04Um7uAE1o-37" value="" style="shape=partialRectangle;collapsible=0;dropTarget=0;pointerEvents=0;fillColor=none;top=0;left=0;bottom=0;right=0;points=[[0,0.5],[1,0.5]];portConstraint=eastwest;rounded=1;" vertex="1" parent="ob_97SbMXPfb_6fFZYyK-166">
          <mxGeometry y="150" width="180" height="30" as="geometry" />
        </mxCell>
        <mxCell id="5d3oSk-wsn04Um7uAE1o-38" value="FK" style="shape=partialRectangle;connectable=0;fillColor=none;top=0;left=0;bottom=0;right=0;editable=1;overflow=hidden;" vertex="1" parent="5d3oSk-wsn04Um7uAE1o-37">
          <mxGeometry width="30" height="30" as="geometry" />
        </mxCell>
        <mxCell id="5d3oSk-wsn04Um7uAE1o-39" value="Employee ID" style="shape=partialRectangle;connectable=0;fillColor=none;top=0;left=0;bottom=0;right=0;align=left;spacingLeft=6;overflow=hidden;" vertex="1" parent="5d3oSk-wsn04Um7uAE1o-37">
          <mxGeometry x="30" width="150" height="30" as="geometry" />
        </mxCell>
        <mxCell id="ob_97SbMXPfb_6fFZYyK-205" value="Enrollment" style="shape=table;startSize=30;container=1;collapsible=1;childLayout=tableLayout;fixedRows=1;rowLines=0;fontStyle=1;align=center;resizeLast=1;fillColor=#f0a30a;strokeColor=#BD7000;fontColor=#ffffff;rounded=1;" parent="1" vertex="1">
          <mxGeometry x="670" y="-710" width="180" height="100" as="geometry" />
        </mxCell>
        <mxCell id="ob_97SbMXPfb_6fFZYyK-209" value="" style="shape=partialRectangle;collapsible=0;dropTarget=0;pointerEvents=0;fillColor=none;top=0;left=0;bottom=0;right=0;points=[[0,0.5],[1,0.5]];portConstraint=eastwest;rounded=1;" parent="ob_97SbMXPfb_6fFZYyK-205" vertex="1">
          <mxGeometry y="30" width="180" height="30" as="geometry" />
        </mxCell>
        <mxCell id="ob_97SbMXPfb_6fFZYyK-210" value="FK" style="shape=partialRectangle;connectable=0;fillColor=none;top=0;left=0;bottom=0;right=0;editable=1;overflow=hidden;rounded=1;" parent="ob_97SbMXPfb_6fFZYyK-209" vertex="1">
          <mxGeometry width="30" height="30" as="geometry" />
        </mxCell>
        <mxCell id="ob_97SbMXPfb_6fFZYyK-211" value="Student ID" style="shape=partialRectangle;connectable=0;fillColor=none;top=0;left=0;bottom=0;right=0;align=left;spacingLeft=6;overflow=hidden;rounded=1;" parent="ob_97SbMXPfb_6fFZYyK-209" vertex="1">
          <mxGeometry x="30" width="150" height="30" as="geometry" />
        </mxCell>
        <mxCell id="ob_97SbMXPfb_6fFZYyK-212" value="" style="shape=partialRectangle;collapsible=0;dropTarget=0;pointerEvents=0;fillColor=none;top=0;left=0;bottom=0;right=0;points=[[0,0.5],[1,0.5]];portConstraint=eastwest;rounded=1;" parent="ob_97SbMXPfb_6fFZYyK-205" vertex="1">
          <mxGeometry y="60" width="180" height="30" as="geometry" />
        </mxCell>
        <mxCell id="ob_97SbMXPfb_6fFZYyK-213" value="FK" style="shape=partialRectangle;connectable=0;fillColor=none;top=0;left=0;bottom=0;right=0;editable=1;overflow=hidden;rounded=1;" parent="ob_97SbMXPfb_6fFZYyK-212" vertex="1">
          <mxGeometry width="30" height="30" as="geometry" />
        </mxCell>
        <mxCell id="ob_97SbMXPfb_6fFZYyK-214" value="Course ID" style="shape=partialRectangle;connectable=0;fillColor=none;top=0;left=0;bottom=0;right=0;align=left;spacingLeft=6;overflow=hidden;rounded=1;" parent="ob_97SbMXPfb_6fFZYyK-212" vertex="1">
          <mxGeometry x="30" width="150" height="30" as="geometry" />
        </mxCell>
        <mxCell id="PE_-QwPCLmoHqQB92Fj--1" value="OWL" style="shape=table;startSize=30;container=1;collapsible=1;childLayout=tableLayout;fixedRows=1;rowLines=0;fontStyle=1;align=center;resizeLast=1;fillColor=#f0a30a;strokeColor=#BD7000;fontColor=#ffffff;rounded=1;" parent="1" vertex="1">
          <mxGeometry x="1200" y="-584" width="180" height="160" as="geometry" />
        </mxCell>
        <mxCell id="PE_-QwPCLmoHqQB92Fj--17" value="" style="shape=partialRectangle;collapsible=0;dropTarget=0;pointerEvents=0;fillColor=none;top=0;left=0;bottom=0;right=0;points=[[0,0.5],[1,0.5]];portConstraint=eastwest;rounded=1;" parent="PE_-QwPCLmoHqQB92Fj--1" vertex="1">
          <mxGeometry y="30" width="180" height="30" as="geometry" />
        </mxCell>
        <mxCell id="PE_-QwPCLmoHqQB92Fj--18" value="FK" style="shape=partialRectangle;connectable=0;fillColor=none;top=0;left=0;bottom=0;right=0;fontStyle=0;overflow=hidden;rounded=1;" parent="PE_-QwPCLmoHqQB92Fj--17" vertex="1">
          <mxGeometry width="30" height="30" as="geometry" />
        </mxCell>
        <mxCell id="PE_-QwPCLmoHqQB92Fj--19" value="Examiner ID" style="shape=partialRectangle;connectable=0;fillColor=none;top=0;left=0;bottom=0;right=0;align=left;spacingLeft=6;fontStyle=0;overflow=hidden;rounded=1;" parent="PE_-QwPCLmoHqQB92Fj--17" vertex="1">
          <mxGeometry x="30" width="150" height="30" as="geometry" />
        </mxCell>
        <mxCell id="PE_-QwPCLmoHqQB92Fj--14" value="" style="shape=partialRectangle;collapsible=0;dropTarget=0;pointerEvents=0;fillColor=none;top=0;left=0;bottom=0;right=0;points=[[0,0.5],[1,0.5]];portConstraint=eastwest;rounded=1;" parent="PE_-QwPCLmoHqQB92Fj--1" vertex="1">
          <mxGeometry y="60" width="180" height="30" as="geometry" />
        </mxCell>
        <mxCell id="PE_-QwPCLmoHqQB92Fj--15" value="FK" style="shape=partialRectangle;connectable=0;fillColor=none;top=0;left=0;bottom=0;right=0;fontStyle=0;overflow=hidden;rounded=1;" parent="PE_-QwPCLmoHqQB92Fj--14" vertex="1">
          <mxGeometry width="30" height="30" as="geometry" />
        </mxCell>
        <mxCell id="PE_-QwPCLmoHqQB92Fj--16" value="Course ID" style="shape=partialRectangle;connectable=0;fillColor=none;top=0;left=0;bottom=0;right=0;align=left;spacingLeft=6;fontStyle=0;overflow=hidden;rounded=1;" parent="PE_-QwPCLmoHqQB92Fj--14" vertex="1">
          <mxGeometry x="30" width="150" height="30" as="geometry" />
        </mxCell>
        <mxCell id="PE_-QwPCLmoHqQB92Fj--20" value="" style="shape=partialRectangle;collapsible=0;dropTarget=0;pointerEvents=0;fillColor=none;top=0;left=0;bottom=0;right=0;points=[[0,0.5],[1,0.5]];portConstraint=eastwest;rounded=1;" parent="PE_-QwPCLmoHqQB92Fj--1" vertex="1">
          <mxGeometry y="90" width="180" height="30" as="geometry" />
        </mxCell>
        <mxCell id="PE_-QwPCLmoHqQB92Fj--21" value="" style="shape=partialRectangle;connectable=0;fillColor=none;top=0;left=0;bottom=0;right=0;fontStyle=0;overflow=hidden;rounded=1;" parent="PE_-QwPCLmoHqQB92Fj--20" vertex="1">
          <mxGeometry width="30" height="30" as="geometry" />
        </mxCell>
        <mxCell id="PE_-QwPCLmoHqQB92Fj--22" value="Slot" style="shape=partialRectangle;connectable=0;fillColor=none;top=0;left=0;bottom=0;right=0;align=left;spacingLeft=6;fontStyle=0;overflow=hidden;rounded=1;" parent="PE_-QwPCLmoHqQB92Fj--20" vertex="1">
          <mxGeometry x="30" width="150" height="30" as="geometry" />
        </mxCell>
        <mxCell id="PE_-QwPCLmoHqQB92Fj--11" value="" style="shape=partialRectangle;collapsible=0;dropTarget=0;pointerEvents=0;fillColor=none;top=0;left=0;bottom=0;right=0;points=[[0,0.5],[1,0.5]];portConstraint=eastwest;rounded=1;" parent="PE_-QwPCLmoHqQB92Fj--1" vertex="1">
          <mxGeometry y="120" width="180" height="30" as="geometry" />
        </mxCell>
        <mxCell id="PE_-QwPCLmoHqQB92Fj--12" value="" style="shape=partialRectangle;connectable=0;fillColor=none;top=0;left=0;bottom=0;right=0;editable=1;overflow=hidden;rounded=1;" parent="PE_-QwPCLmoHqQB92Fj--11" vertex="1">
          <mxGeometry width="30" height="30" as="geometry" />
        </mxCell>
        <mxCell id="PE_-QwPCLmoHqQB92Fj--13" value="Nature" style="shape=partialRectangle;connectable=0;fillColor=none;top=0;left=0;bottom=0;right=0;align=left;spacingLeft=6;overflow=hidden;rounded=1;" parent="PE_-QwPCLmoHqQB92Fj--11" vertex="1">
          <mxGeometry x="30" width="150" height="30" as="geometry" />
        </mxCell>
        <mxCell id="PE_-QwPCLmoHqQB92Fj--23" value="Examminer" style="shape=table;startSize=30;container=1;collapsible=1;childLayout=tableLayout;fixedRows=1;rowLines=0;fontStyle=1;align=center;resizeLast=1;fillColor=#f5f5f5;strokeColor=#666666;fontColor=#333333;rounded=1;" parent="1" vertex="1">
          <mxGeometry x="1000" y="-360" width="180" height="160" as="geometry" />
        </mxCell>
        <mxCell id="PE_-QwPCLmoHqQB92Fj--24" value="" style="shape=partialRectangle;collapsible=0;dropTarget=0;pointerEvents=0;fillColor=none;top=0;left=0;bottom=1;right=0;points=[[0,0.5],[1,0.5]];portConstraint=eastwest;rounded=1;" parent="PE_-QwPCLmoHqQB92Fj--23" vertex="1">
          <mxGeometry y="30" width="180" height="30" as="geometry" />
        </mxCell>
        <mxCell id="PE_-QwPCLmoHqQB92Fj--25" value="PK" style="shape=partialRectangle;connectable=0;fillColor=none;top=0;left=0;bottom=0;right=0;fontStyle=1;overflow=hidden;rounded=1;" parent="PE_-QwPCLmoHqQB92Fj--24" vertex="1">
          <mxGeometry width="30" height="30" as="geometry" />
        </mxCell>
        <mxCell id="PE_-QwPCLmoHqQB92Fj--26" value="Examiner ID" style="shape=partialRectangle;connectable=0;fillColor=none;top=0;left=0;bottom=0;right=0;align=left;spacingLeft=6;fontStyle=5;overflow=hidden;rounded=1;" parent="PE_-QwPCLmoHqQB92Fj--24" vertex="1">
          <mxGeometry x="30" width="150" height="30" as="geometry" />
        </mxCell>
        <mxCell id="PE_-QwPCLmoHqQB92Fj--27" value="" style="shape=partialRectangle;collapsible=0;dropTarget=0;pointerEvents=0;fillColor=none;top=0;left=0;bottom=0;right=0;points=[[0,0.5],[1,0.5]];portConstraint=eastwest;rounded=1;" parent="PE_-QwPCLmoHqQB92Fj--23" vertex="1">
          <mxGeometry y="60" width="180" height="30" as="geometry" />
        </mxCell>
        <mxCell id="PE_-QwPCLmoHqQB92Fj--28" value="" style="shape=partialRectangle;connectable=0;fillColor=none;top=0;left=0;bottom=0;right=0;editable=1;overflow=hidden;rounded=1;" parent="PE_-QwPCLmoHqQB92Fj--27" vertex="1">
          <mxGeometry width="30" height="30" as="geometry" />
        </mxCell>
        <mxCell id="PE_-QwPCLmoHqQB92Fj--29" value="Examiner Name" style="shape=partialRectangle;connectable=0;fillColor=none;top=0;left=0;bottom=0;right=0;align=left;spacingLeft=6;overflow=hidden;rounded=1;" parent="PE_-QwPCLmoHqQB92Fj--27" vertex="1">
          <mxGeometry x="30" width="150" height="30" as="geometry" />
        </mxCell>
        <mxCell id="PE_-QwPCLmoHqQB92Fj--68" value="" style="shape=partialRectangle;collapsible=0;dropTarget=0;pointerEvents=0;fillColor=none;top=0;left=0;bottom=0;right=0;points=[[0,0.5],[1,0.5]];portConstraint=eastwest;strokeColor=#028090;fontColor=#E4FDE1;rounded=1;" parent="PE_-QwPCLmoHqQB92Fj--23" vertex="1">
          <mxGeometry y="90" width="180" height="30" as="geometry" />
        </mxCell>
        <mxCell id="PE_-QwPCLmoHqQB92Fj--69" value="FK" style="shape=partialRectangle;connectable=0;fillColor=none;top=0;left=0;bottom=0;right=0;fontStyle=0;overflow=hidden;rounded=1;" parent="PE_-QwPCLmoHqQB92Fj--68" vertex="1">
          <mxGeometry width="30" height="30" as="geometry" />
        </mxCell>
        <mxCell id="PE_-QwPCLmoHqQB92Fj--70" value="Character ID" style="shape=partialRectangle;connectable=0;fillColor=none;top=0;left=0;bottom=0;right=0;align=left;spacingLeft=6;fontStyle=0;overflow=hidden;rounded=1;" parent="PE_-QwPCLmoHqQB92Fj--68" vertex="1">
          <mxGeometry x="30" width="150" height="30" as="geometry" />
        </mxCell>
        <mxCell id="PE_-QwPCLmoHqQB92Fj--36" value="" style="shape=partialRectangle;collapsible=0;dropTarget=0;pointerEvents=0;fillColor=none;top=0;left=0;bottom=0;right=0;points=[[0,0.5],[1,0.5]];portConstraint=eastwest;rounded=1;" parent="PE_-QwPCLmoHqQB92Fj--23" vertex="1">
          <mxGeometry y="120" width="180" height="30" as="geometry" />
        </mxCell>
        <mxCell id="PE_-QwPCLmoHqQB92Fj--37" value="FK" style="shape=partialRectangle;connectable=0;fillColor=none;top=0;left=0;bottom=0;right=0;fontStyle=0;overflow=hidden;rounded=1;" parent="PE_-QwPCLmoHqQB92Fj--36" vertex="1">
          <mxGeometry width="30" height="30" as="geometry" />
        </mxCell>
        <mxCell id="PE_-QwPCLmoHqQB92Fj--38" value="Level ID" style="shape=partialRectangle;connectable=0;fillColor=none;top=0;left=0;bottom=0;right=0;align=left;spacingLeft=6;fontStyle=0;overflow=hidden;rounded=1;" parent="PE_-QwPCLmoHqQB92Fj--36" vertex="1">
          <mxGeometry x="30" width="150" height="30" as="geometry" />
        </mxCell>
        <mxCell id="PE_-QwPCLmoHqQB92Fj--61" value="" style="edgeStyle=entityRelationEdgeStyle;fontSize=12;html=1;endArrow=ERoneToMany;startArrow=ERmandOne;strokeColor=#028090;fillColor=#F45B69;" parent="1" source="ob_97SbMXPfb_6fFZYyK-6" target="ob_97SbMXPfb_6fFZYyK-58" edge="1">
          <mxGeometry width="100" height="100" relative="1" as="geometry">
            <mxPoint x="410" y="350" as="sourcePoint" />
            <mxPoint x="510" y="250" as="targetPoint" />
          </mxGeometry>
        </mxCell>
        <mxCell id="PE_-QwPCLmoHqQB92Fj--62" value="" style="edgeStyle=entityRelationEdgeStyle;fontSize=12;html=1;endArrow=ERoneToMany;startArrow=ERoneToMany;strokeColor=#028090;fillColor=#F45B69;exitX=0.951;exitY=-0.013;exitDx=0;exitDy=0;exitPerimeter=0;entryX=-0.009;entryY=0.727;entryDx=0;entryDy=0;entryPerimeter=0;" parent="1" source="ob_97SbMXPfb_6fFZYyK-19" target="ob_97SbMXPfb_6fFZYyK-32" edge="1">
          <mxGeometry width="100" height="100" relative="1" as="geometry">
            <mxPoint x="410" y="350" as="sourcePoint" />
            <mxPoint x="510" y="250" as="targetPoint" />
          </mxGeometry>
        </mxCell>
        <mxCell id="PE_-QwPCLmoHqQB92Fj--63" value="" style="edgeStyle=entityRelationEdgeStyle;fontSize=12;html=1;endArrow=ERmandOne;startArrow=ERmandOne;strokeColor=#028090;fillColor=#F45B69;entryX=-0.016;entryY=0.18;entryDx=0;entryDy=0;entryPerimeter=0;" parent="1" source="ob_97SbMXPfb_6fFZYyK-45" target="ob_97SbMXPfb_6fFZYyK-154" edge="1">
          <mxGeometry width="100" height="100" relative="1" as="geometry">
            <mxPoint x="410" y="230" as="sourcePoint" />
            <mxPoint x="510" y="130" as="targetPoint" />
          </mxGeometry>
        </mxCell>
        <mxCell id="PE_-QwPCLmoHqQB92Fj--64" value="" style="edgeStyle=entityRelationEdgeStyle;fontSize=12;html=1;endArrow=ERmandOne;startArrow=ERmandOne;strokeColor=#028090;fillColor=#F45B69;exitX=0.978;exitY=0.147;exitDx=0;exitDy=0;entryX=0.062;entryY=0.067;entryDx=0;entryDy=0;entryPerimeter=0;exitPerimeter=0;" parent="1" source="ob_97SbMXPfb_6fFZYyK-118" target="ob_97SbMXPfb_6fFZYyK-45" edge="1">
          <mxGeometry width="100" height="100" relative="1" as="geometry">
            <mxPoint x="710" y="300" as="sourcePoint" />
            <mxPoint x="810" y="200" as="targetPoint" />
          </mxGeometry>
        </mxCell>
        <mxCell id="PE_-QwPCLmoHqQB92Fj--65" value="" style="edgeStyle=entityRelationEdgeStyle;fontSize=12;html=1;endArrow=ERmandOne;startArrow=ERmandOne;strokeColor=#028090;fillColor=#F45B69;exitX=0.06;exitY=0.107;exitDx=0;exitDy=0;exitPerimeter=0;entryX=1.009;entryY=1.107;entryDx=0;entryDy=0;entryPerimeter=0;" parent="1" source="ob_97SbMXPfb_6fFZYyK-106" target="ob_97SbMXPfb_6fFZYyK-45" edge="1">
          <mxGeometry width="100" height="100" relative="1" as="geometry">
            <mxPoint x="630" y="140" as="sourcePoint" />
            <mxPoint x="870" y="190" as="targetPoint" />
          </mxGeometry>
        </mxCell>
        <mxCell id="PE_-QwPCLmoHqQB92Fj--67" value="" style="edgeStyle=entityRelationEdgeStyle;fontSize=12;html=1;endArrow=ERmandOne;startArrow=ERmandOne;strokeColor=#028090;fillColor=#F45B69;exitX=0.984;exitY=0.24;exitDx=0;exitDy=0;exitPerimeter=0;entryX=0.078;entryY=0.067;entryDx=0;entryDy=0;entryPerimeter=0;" parent="1" source="ob_97SbMXPfb_6fFZYyK-45" target="PE_-QwPCLmoHqQB92Fj--68" edge="1">
          <mxGeometry width="100" height="100" relative="1" as="geometry">
            <mxPoint x="820" y="-80" as="sourcePoint" />
            <mxPoint x="970" y="-290" as="targetPoint" />
          </mxGeometry>
        </mxCell>
        <mxCell id="PE_-QwPCLmoHqQB92Fj--75" value="" style="edgeStyle=entityRelationEdgeStyle;fontSize=12;html=1;endArrow=ERoneToMany;startArrow=ERmandOne;strokeColor=#028090;fillColor=#F45B69;entryX=0.016;entryY=0.787;entryDx=0;entryDy=0;entryPerimeter=0;exitX=1.018;exitY=0.827;exitDx=0;exitDy=0;exitPerimeter=0;" parent="1" source="ob_97SbMXPfb_6fFZYyK-141" target="ob_97SbMXPfb_6fFZYyK-173" edge="1">
          <mxGeometry width="100" height="100" relative="1" as="geometry">
            <mxPoint x="1488" y="-170" as="sourcePoint" />
            <mxPoint x="1280" y="-40" as="targetPoint" />
          </mxGeometry>
        </mxCell>
        <mxCell id="PE_-QwPCLmoHqQB92Fj--85" value="" style="edgeStyle=entityRelationEdgeStyle;fontSize=12;html=1;endArrow=ERoneToMany;startArrow=ERmandOne;strokeColor=#028090;fillColor=#F45B69;entryX=1.007;entryY=0.847;entryDx=0;entryDy=0;entryPerimeter=0;exitX=-0.009;exitY=0.767;exitDx=0;exitDy=0;exitPerimeter=0;" parent="1" source="ob_97SbMXPfb_6fFZYyK-141" target="PE_-QwPCLmoHqQB92Fj--36" edge="1">
          <mxGeometry width="100" height="100" relative="1" as="geometry">
            <mxPoint x="770" y="260" as="sourcePoint" />
            <mxPoint x="870" y="160" as="targetPoint" />
          </mxGeometry>
        </mxCell>
        <mxCell id="PE_-QwPCLmoHqQB92Fj--86" value="" style="edgeStyle=entityRelationEdgeStyle;fontSize=12;html=1;endArrow=ERoneToMany;startArrow=ERmandOne;strokeColor=#028090;fillColor=#F45B69;exitX=0.989;exitY=0.847;exitDx=0;exitDy=0;exitPerimeter=0;entryX=-0.004;entryY=0.656;entryDx=0;entryDy=0;entryPerimeter=0;" parent="1" source="PE_-QwPCLmoHqQB92Fj--14" target="ob_97SbMXPfb_6fFZYyK-71" edge="1">
          <mxGeometry width="100" height="100" relative="1" as="geometry">
            <mxPoint x="1240" y="-330" as="sourcePoint" />
            <mxPoint x="1320" y="-260" as="targetPoint" />
          </mxGeometry>
        </mxCell>
        <mxCell id="PE_-QwPCLmoHqQB92Fj--87" value="" style="edgeStyle=entityRelationEdgeStyle;fontSize=12;html=1;endArrow=ERoneToMany;startArrow=ERmandOne;strokeColor=#028090;fillColor=#F45B69;entryX=0.993;entryY=0.807;entryDx=0;entryDy=0;entryPerimeter=0;exitX=0;exitY=0.5;exitDx=0;exitDy=0;" parent="1" source="PE_-QwPCLmoHqQB92Fj--17" target="PE_-QwPCLmoHqQB92Fj--24" edge="1">
          <mxGeometry width="100" height="100" relative="1" as="geometry">
            <mxPoint x="1255" y="-340" as="sourcePoint" />
            <mxPoint x="1200" y="-520" as="targetPoint" />
          </mxGeometry>
        </mxCell>
        <mxCell id="PE_-QwPCLmoHqQB92Fj--89" value="" style="edgeStyle=entityRelationEdgeStyle;fontSize=12;html=1;endArrow=ERoneToMany;startArrow=ERoneToMany;strokeColor=#028090;fillColor=#F45B69;exitX=1.007;exitY=0.208;exitDx=0;exitDy=0;exitPerimeter=0;entryX=0.022;entryY=0.122;entryDx=0;entryDy=0;entryPerimeter=0;" parent="1" source="ob_97SbMXPfb_6fFZYyK-58" target="ob_97SbMXPfb_6fFZYyK-209" edge="1">
          <mxGeometry width="100" height="100" relative="1" as="geometry">
            <mxPoint x="400" y="-40" as="sourcePoint" />
            <mxPoint x="500" y="-140" as="targetPoint" />
          </mxGeometry>
        </mxCell>
        <mxCell id="PE_-QwPCLmoHqQB92Fj--90" value="" style="edgeStyle=entityRelationEdgeStyle;fontSize=12;html=1;endArrow=ERoneToMany;startArrow=ERoneToMany;strokeColor=#028090;fillColor=#F45B69;entryX=0.989;entryY=0.887;entryDx=0;entryDy=0;entryPerimeter=0;exitX=-0.004;exitY=0.3;exitDx=0;exitDy=0;exitPerimeter=0;" parent="1" source="ob_97SbMXPfb_6fFZYyK-71" target="ob_97SbMXPfb_6fFZYyK-212" edge="1">
          <mxGeometry width="100" height="100" relative="1" as="geometry">
            <mxPoint x="1071.5999755859375" y="-540" as="sourcePoint" />
            <mxPoint x="560" y="-150" as="targetPoint" />
          </mxGeometry>
        </mxCell>
        <mxCell id="PE_-QwPCLmoHqQB92Fj--91" value="" style="edgeStyle=entityRelationEdgeStyle;fontSize=12;html=1;endArrow=ERoneToMany;startArrow=ERmandOne;strokeColor=#028090;fillColor=#F45B69;exitX=0.98;exitY=0.82;exitDx=0;exitDy=0;exitPerimeter=0;entryX=0;entryY=0.735;entryDx=0;entryDy=0;entryPerimeter=0;" parent="1" source="ob_97SbMXPfb_6fFZYyK-137" target="ob_97SbMXPfb_6fFZYyK-58" edge="1">
          <mxGeometry width="100" height="100" relative="1" as="geometry">
            <mxPoint x="570" y="-80" as="sourcePoint" />
            <mxPoint x="400" y="-130" as="targetPoint" />
          </mxGeometry>
        </mxCell>
        <mxCell id="PE_-QwPCLmoHqQB92Fj--99" value="" style="edgeStyle=entityRelationEdgeStyle;fontSize=12;html=1;endArrow=ERmandOne;startArrow=ERmandOne;strokeColor=#028090;fillColor=#F45B69;entryX=0;entryY=0.5;entryDx=0;entryDy=0;exitX=0.993;exitY=0.833;exitDx=0;exitDy=0;exitPerimeter=0;" parent="1" source="ob_97SbMXPfb_6fFZYyK-134" target="ob_97SbMXPfb_6fFZYyK-71" edge="1">
          <mxGeometry width="100" height="100" relative="1" as="geometry">
            <mxPoint x="920" y="-500" as="sourcePoint" />
            <mxPoint x="1020" y="-600" as="targetPoint" />
          </mxGeometry>
        </mxCell>
        <mxCell id="5d3oSk-wsn04Um7uAE1o-1" value="Office Incharge" style="shape=table;startSize=30;container=1;collapsible=1;childLayout=tableLayout;fixedRows=1;rowLines=0;fontStyle=1;align=center;resizeLast=1;rounded=1;fillColor=#f5f5f5;strokeColor=#666666;fontColor=#333333;" vertex="1" parent="1">
          <mxGeometry x="1770" y="20" width="180" height="130" as="geometry" />
        </mxCell>
        <mxCell id="5d3oSk-wsn04Um7uAE1o-2" value="" style="shape=partialRectangle;collapsible=0;dropTarget=0;pointerEvents=0;fillColor=none;top=0;left=0;bottom=1;right=0;points=[[0,0.5],[1,0.5]];portConstraint=eastwest;rounded=1;" vertex="1" parent="5d3oSk-wsn04Um7uAE1o-1">
          <mxGeometry y="30" width="180" height="30" as="geometry" />
        </mxCell>
        <mxCell id="5d3oSk-wsn04Um7uAE1o-3" value="PK" style="shape=partialRectangle;connectable=0;fillColor=none;top=0;left=0;bottom=0;right=0;fontStyle=1;overflow=hidden;rounded=1;" vertex="1" parent="5d3oSk-wsn04Um7uAE1o-2">
          <mxGeometry width="30" height="30" as="geometry" />
        </mxCell>
        <mxCell id="5d3oSk-wsn04Um7uAE1o-4" value="Incharge ID" style="shape=partialRectangle;connectable=0;fillColor=none;top=0;left=0;bottom=0;right=0;align=left;spacingLeft=6;fontStyle=5;overflow=hidden;rounded=1;" vertex="1" parent="5d3oSk-wsn04Um7uAE1o-2">
          <mxGeometry x="30" width="150" height="30" as="geometry" />
        </mxCell>
        <mxCell id="5d3oSk-wsn04Um7uAE1o-31" value="" style="shape=partialRectangle;collapsible=0;dropTarget=0;pointerEvents=0;fillColor=none;top=0;left=0;bottom=0;right=0;points=[[0,0.5],[1,0.5]];portConstraint=eastwest;rounded=1;" vertex="1" parent="5d3oSk-wsn04Um7uAE1o-1">
          <mxGeometry y="60" width="180" height="30" as="geometry" />
        </mxCell>
        <mxCell id="5d3oSk-wsn04Um7uAE1o-32" value="" style="shape=partialRectangle;connectable=0;fillColor=none;top=0;left=0;bottom=0;right=0;editable=1;overflow=hidden;" vertex="1" parent="5d3oSk-wsn04Um7uAE1o-31">
          <mxGeometry width="30" height="30" as="geometry" />
        </mxCell>
        <mxCell id="5d3oSk-wsn04Um7uAE1o-33" value="Hire date" style="shape=partialRectangle;connectable=0;fillColor=none;top=0;left=0;bottom=0;right=0;align=left;spacingLeft=6;overflow=hidden;" vertex="1" parent="5d3oSk-wsn04Um7uAE1o-31">
          <mxGeometry x="30" width="150" height="30" as="geometry" />
        </mxCell>
        <mxCell id="5d3oSk-wsn04Um7uAE1o-5" value="" style="shape=partialRectangle;collapsible=0;dropTarget=0;pointerEvents=0;fillColor=none;top=0;left=0;bottom=0;right=0;points=[[0,0.5],[1,0.5]];portConstraint=eastwest;rounded=1;" vertex="1" parent="5d3oSk-wsn04Um7uAE1o-1">
          <mxGeometry y="90" width="180" height="30" as="geometry" />
        </mxCell>
        <mxCell id="5d3oSk-wsn04Um7uAE1o-6" value="" style="shape=partialRectangle;connectable=0;fillColor=none;top=0;left=0;bottom=0;right=0;editable=1;overflow=hidden;rounded=1;" vertex="1" parent="5d3oSk-wsn04Um7uAE1o-5">
          <mxGeometry width="30" height="30" as="geometry" />
        </mxCell>
        <mxCell id="5d3oSk-wsn04Um7uAE1o-7" value="Incharge Name" style="shape=partialRectangle;connectable=0;fillColor=none;top=0;left=0;bottom=0;right=0;align=left;spacingLeft=6;overflow=hidden;rounded=1;" vertex="1" parent="5d3oSk-wsn04Um7uAE1o-5">
          <mxGeometry x="30" width="150" height="30" as="geometry" />
        </mxCell>
        <mxCell id="5d3oSk-wsn04Um7uAE1o-14" value="Minister" style="shape=table;startSize=30;container=1;collapsible=1;childLayout=tableLayout;fixedRows=1;rowLines=0;fontStyle=1;align=center;resizeLast=1;rounded=1;fillColor=#f5f5f5;strokeColor=#666666;fontColor=#333333;" vertex="1" parent="1">
          <mxGeometry x="1770" y="-220" width="180" height="130" as="geometry" />
        </mxCell>
        <mxCell id="5d3oSk-wsn04Um7uAE1o-15" value="" style="shape=partialRectangle;collapsible=0;dropTarget=0;pointerEvents=0;fillColor=none;top=0;left=0;bottom=1;right=0;points=[[0,0.5],[1,0.5]];portConstraint=eastwest;rounded=1;" vertex="1" parent="5d3oSk-wsn04Um7uAE1o-14">
          <mxGeometry y="30" width="180" height="30" as="geometry" />
        </mxCell>
        <mxCell id="5d3oSk-wsn04Um7uAE1o-16" value="PK" style="shape=partialRectangle;connectable=0;fillColor=none;top=0;left=0;bottom=0;right=0;fontStyle=1;overflow=hidden;rounded=1;" vertex="1" parent="5d3oSk-wsn04Um7uAE1o-15">
          <mxGeometry width="30" height="30" as="geometry" />
        </mxCell>
        <mxCell id="5d3oSk-wsn04Um7uAE1o-17" value="Mister ID" style="shape=partialRectangle;connectable=0;fillColor=none;top=0;left=0;bottom=0;right=0;align=left;spacingLeft=6;fontStyle=5;overflow=hidden;rounded=1;" vertex="1" parent="5d3oSk-wsn04Um7uAE1o-15">
          <mxGeometry x="30" width="150" height="30" as="geometry" />
        </mxCell>
        <mxCell id="5d3oSk-wsn04Um7uAE1o-28" value="" style="shape=partialRectangle;collapsible=0;dropTarget=0;pointerEvents=0;fillColor=none;top=0;left=0;bottom=0;right=0;points=[[0,0.5],[1,0.5]];portConstraint=eastwest;rounded=1;" vertex="1" parent="5d3oSk-wsn04Um7uAE1o-14">
          <mxGeometry y="60" width="180" height="30" as="geometry" />
        </mxCell>
        <mxCell id="5d3oSk-wsn04Um7uAE1o-29" value="" style="shape=partialRectangle;connectable=0;fillColor=none;top=0;left=0;bottom=0;right=0;editable=1;overflow=hidden;" vertex="1" parent="5d3oSk-wsn04Um7uAE1o-28">
          <mxGeometry width="30" height="30" as="geometry" />
        </mxCell>
        <mxCell id="5d3oSk-wsn04Um7uAE1o-30" value="HireDate" style="shape=partialRectangle;connectable=0;fillColor=none;top=0;left=0;bottom=0;right=0;align=left;spacingLeft=6;overflow=hidden;" vertex="1" parent="5d3oSk-wsn04Um7uAE1o-28">
          <mxGeometry x="30" width="150" height="30" as="geometry" />
        </mxCell>
        <mxCell id="5d3oSk-wsn04Um7uAE1o-18" value="" style="shape=partialRectangle;collapsible=0;dropTarget=0;pointerEvents=0;fillColor=none;top=0;left=0;bottom=0;right=0;points=[[0,0.5],[1,0.5]];portConstraint=eastwest;rounded=1;" vertex="1" parent="5d3oSk-wsn04Um7uAE1o-14">
          <mxGeometry y="90" width="180" height="30" as="geometry" />
        </mxCell>
        <mxCell id="5d3oSk-wsn04Um7uAE1o-19" value="" style="shape=partialRectangle;connectable=0;fillColor=none;top=0;left=0;bottom=0;right=0;editable=1;overflow=hidden;rounded=1;" vertex="1" parent="5d3oSk-wsn04Um7uAE1o-18">
          <mxGeometry width="30" height="30" as="geometry" />
        </mxCell>
        <mxCell id="5d3oSk-wsn04Um7uAE1o-20" value="Minister Name" style="shape=partialRectangle;connectable=0;fillColor=none;top=0;left=0;bottom=0;right=0;align=left;spacingLeft=6;overflow=hidden;rounded=1;" vertex="1" parent="5d3oSk-wsn04Um7uAE1o-18">
          <mxGeometry x="30" width="150" height="30" as="geometry" />
        </mxCell>
        <mxCell id="5d3oSk-wsn04Um7uAE1o-34" value="" style="edgeStyle=entityRelationEdgeStyle;fontSize=12;html=1;endArrow=ERoneToMany;startArrow=ERoneToMany;exitX=0.996;exitY=1.011;exitDx=0;exitDy=0;exitPerimeter=0;entryX=0.996;entryY=0.768;entryDx=0;entryDy=0;entryPerimeter=0;" edge="1" parent="1" source="ob_97SbMXPfb_6fFZYyK-35" target="ob_97SbMXPfb_6fFZYyK-45">
          <mxGeometry width="100" height="100" relative="1" as="geometry">
            <mxPoint x="910" y="-80" as="sourcePoint" />
            <mxPoint x="1010" y="-180" as="targetPoint" />
          </mxGeometry>
        </mxCell>
        <mxCell id="5d3oSk-wsn04Um7uAE1o-35" value="" style="edgeStyle=entityRelationEdgeStyle;fontSize=12;html=1;endArrow=ERmandOne;startArrow=ERmandOne;entryX=0.993;entryY=0.878;entryDx=0;entryDy=0;entryPerimeter=0;exitX=0;exitY=0.878;exitDx=0;exitDy=0;exitPerimeter=0;" edge="1" parent="1" source="5d3oSk-wsn04Um7uAE1o-15" target="PE_-QwPCLmoHqQB92Fj--39">
          <mxGeometry width="100" height="100" relative="1" as="geometry">
            <mxPoint x="910" y="-80" as="sourcePoint" />
            <mxPoint x="1010" y="-180" as="targetPoint" />
          </mxGeometry>
        </mxCell>
        <mxCell id="5d3oSk-wsn04Um7uAE1o-36" value="" style="edgeStyle=entityRelationEdgeStyle;fontSize=12;html=1;endArrow=ERmandOne;startArrow=ERmandOne;entryX=-0.007;entryY=0.878;entryDx=0;entryDy=0;entryPerimeter=0;exitX=1.007;exitY=1.1;exitDx=0;exitDy=0;exitPerimeter=0;" edge="1" parent="1" source="ob_97SbMXPfb_6fFZYyK-176" target="5d3oSk-wsn04Um7uAE1o-2">
          <mxGeometry width="100" height="100" relative="1" as="geometry">
            <mxPoint x="910" y="-150" as="sourcePoint" />
            <mxPoint x="1010" y="-250" as="targetPoint" />
          </mxGeometry>
        </mxCell>
        <mxCell id="5d3oSk-wsn04Um7uAE1o-40" value="" style="edgeStyle=entityRelationEdgeStyle;fontSize=12;html=1;endArrow=ERoneToMany;startArrow=ERmandOne;entryX=1.004;entryY=0.878;entryDx=0;entryDy=0;entryPerimeter=0;exitX=0;exitY=0.989;exitDx=0;exitDy=0;exitPerimeter=0;" edge="1" parent="1" source="5d3oSk-wsn04Um7uAE1o-37" target="ob_97SbMXPfb_6fFZYyK-154">
          <mxGeometry width="100" height="100" relative="1" as="geometry">
            <mxPoint x="910" y="-150" as="sourcePoint" />
            <mxPoint x="1010" y="-250" as="targetPoint" />
          </mxGeometry>
        </mxCell>
        <mxCell id="5d3oSk-wsn04Um7uAE1o-41" value="" style="edgeStyle=entityRelationEdgeStyle;fontSize=12;html=1;endArrow=ERoneToMany;startArrow=ERoneToMany;exitX=1.007;exitY=0.838;exitDx=0;exitDy=0;exitPerimeter=0;entryX=-0.007;entryY=0.83;entryDx=0;entryDy=0;entryPerimeter=0;fillColor=#dae8fc;strokeColor=#6C8EBF;" edge="1" parent="1" source="PE_-QwPCLmoHqQB92Fj--51" target="ob_97SbMXPfb_6fFZYyK-71">
          <mxGeometry width="100" height="100" relative="1" as="geometry">
            <mxPoint x="1270" y="90" as="sourcePoint" />
            <mxPoint x="1472" y="-600" as="targetPoint" />
          </mxGeometry>
        </mxCell>
      </root>
    </mxGraphModel>
  </diagram>
</mxfile>
